<svg xmlns="http://www.w3.org/2000/svg" xmlns:xlink="http://www.w3.org/1999/xlink" viewBox="0 0 50 50">
  <defs>
    <style>
      .cls-1 {
        fill: url(#linear-gradient);
      }
    </style>
    <linearGradient id="linear-gradient" x1="0.5" x2="0.5" y2="1" gradientUnits="objectBoundingBox">
      <stop offset="0" stop-color="#63c9ff"/>
      <stop offset="1" stop-color="#4a8dff"/>
    </linearGradient>
  </defs>
  <g id="icon_resort" transform="translate(0 0)">
    <g id="Group_156" data-name="Group 156" transform="translate(0 0)">
      <g id="Group_155" data-name="Group 155" transform="translate(0 0)">
        <rect id="Rectangle_5" data-name="Rectangle 5" class="cls-1" width="1.667" height="1.667" transform="translate(35 29.167)"/>
        <rect id="Rectangle_6" data-name="Rectangle 6" class="cls-1" width="1.667" height="1.667" transform="translate(35 32.5)"/>
        <rect id="Rectangle_7" data-name="Rectangle 7" class="cls-1" width="1.667" height="1.667" transform="translate(35 35.833)"/>
        <rect id="Rectangle_8" data-name="Rectangle 8" class="cls-1" width="1.667" height="1.667" transform="translate(35 22.5)"/>
        <rect id="Rectangle_9" data-name="Rectangle 9" class="cls-1" width="1.667" height="1.667" transform="translate(35 25.833)"/>
        <rect id="Rectangle_10" data-name="Rectangle 10" class="cls-1" width="1.667" height="1.667" transform="translate(35 19.167)"/>
        <rect id="Rectangle_11" data-name="Rectangle 11" class="cls-1" width="1.667" height="1.667" transform="translate(35 15.833)"/>
        <path id="Path_114" data-name="Path 114" class="cls-1" d="M50,24.167H47.845l1.524-1.523-1.178-1.178-1.524,1.523V20.833H45v2.155l-1.524-1.523L42.3,22.643l1.524,1.523H41.667v1.667h2.155L42.3,27.357l1.178,1.178L45,27.012V41.667h-.083a4.173,4.173,0,0,0-4.083-3.333H40V14.167h3.333V12.5H40a5.811,5.811,0,0,0-1.759-4.167H40V6.667H31.667V4.847A2.494,2.494,0,0,0,30.833,0H19.167a2.494,2.494,0,0,0-.833,4.847v1.82H10V8.333h1.759A5.811,5.811,0,0,0,10,12.5H6.667v1.667H10V38.333H9.167a4.173,4.173,0,0,0-4.083,3.333H5V27.012l1.524,1.523L7.7,27.357,6.178,25.833H8.333V24.167H6.178L7.7,22.643,6.524,21.465,5,22.988V20.833H3.333v2.155L1.809,21.465.631,22.643l1.524,1.523H0v1.667H2.155L.631,27.357l1.178,1.178,1.524-1.523V41.75A4.174,4.174,0,0,0,0,45.833V50H50V45.833a4.174,4.174,0,0,0-3.333-4.083V27.012l1.524,1.523,1.178-1.178-1.524-1.523H50ZM10,43.333v5H8.333V46.667H6.667v1.667H5V46.667H3.333v1.667H1.667v-2.5a2.5,2.5,0,0,1,2.5-2.5h2.5V42.5a2.5,2.5,0,0,1,2.5-2.5H10ZM19.167,1.667H30.833a.833.833,0,1,1,0,1.667H19.167a.833.833,0,1,1,0-1.667ZM30,5V6.667H20V5ZM16.667,48.333h-5V45h5Zm0-5h-5V41.667h5Zm0-6.667V40h-5V14.167h5Zm0-24.167h-5a4.172,4.172,0,0,1,4.167-4.167h.833Zm10,35.833H23.333v-2.5A.833.833,0,0,1,24.167,45h1.667a.833.833,0,0,1,.833.833Zm5-5v5H28.333v-2.5a2.5,2.5,0,0,0-2.5-2.5H24.167a2.5,2.5,0,0,0-2.5,2.5v2.5H18.333V41.667H31.667Zm0-3.333H18.333V38.333H31.667Zm0-27.5V36.667H18.333V8.333H31.667Zm6.667,35.833h-5V45h5Zm0-5h-5V41.667h5Zm0-5V40h-5V14.167h5Zm-5-25.833V8.333h.833A4.172,4.172,0,0,1,38.333,12.5Zm15,33.333v2.5H46.667V46.667H45v1.667H43.333V46.667H41.667v1.667H40V40h.833a2.5,2.5,0,0,1,2.5,2.5v.833h2.5A2.5,2.5,0,0,1,48.333,45.833Z" transform="translate(0 0)"/>
        <rect id="Rectangle_12" data-name="Rectangle 12" class="cls-1" width="1.667" height="1.667" transform="translate(13.333 29.167)"/>
        <rect id="Rectangle_13" data-name="Rectangle 13" class="cls-1" width="1.667" height="1.667" transform="translate(13.333 32.5)"/>
        <rect id="Rectangle_14" data-name="Rectangle 14" class="cls-1" width="1.667" height="1.667" transform="translate(13.333 35.833)"/>
        <rect id="Rectangle_15" data-name="Rectangle 15" class="cls-1" width="1.667" height="1.667" transform="translate(13.333 22.5)"/>
        <rect id="Rectangle_16" data-name="Rectangle 16" class="cls-1" width="1.667" height="1.667" transform="translate(13.333 25.833)"/>
        <rect id="Rectangle_17" data-name="Rectangle 17" class="cls-1" width="1.667" height="1.667" transform="translate(13.333 19.167)"/>
        <rect id="Rectangle_18" data-name="Rectangle 18" class="cls-1" width="1.667" height="1.667" transform="translate(13.333 15.833)"/>
        <path id="Path_115" data-name="Path 115" class="cls-1" d="M208.333,96H200v5h8.333Zm-5,3.333h-1.667V97.667h1.667Zm3.333,0H205V97.667h1.667Z" transform="translate(-179.167 -86)"/>
        <path id="Path_116" data-name="Path 116" class="cls-1" d="M208.333,160H200v5h8.333Zm-5,3.333h-1.667v-1.667h1.667Zm3.333,0H205v-1.667h1.667Z" transform="translate(-179.167 -143.333)"/>
        <path id="Path_117" data-name="Path 117" class="cls-1" d="M208.333,224H200v5h8.333Zm-5,3.333h-1.667v-1.667h1.667Zm3.333,0H205v-1.667h1.667Z" transform="translate(-179.167 -200.667)"/>
        <path id="Path_118" data-name="Path 118" class="cls-1" d="M208.333,288H200v5h8.333Zm-5,3.333h-1.667v-1.667h1.667Zm3.333,0H205v-1.667h1.667Z" transform="translate(-179.167 -258)"/>
      </g>
    </g>
  </g>
</svg>
