<svg id="icon_vanphong" xmlns="http://www.w3.org/2000/svg" xmlns:xlink="http://www.w3.org/1999/xlink" viewBox="0 0 50 50">
  <defs>
    <style>
      .cls-1 {
        fill: url(#linear-gradient);
      }
    </style>
    <linearGradient id="linear-gradient" x1="0.5" x2="0.5" y2="1" gradientUnits="objectBoundingBox">
      <stop offset="0" stop-color="#63c9ff"/>
      <stop offset="1" stop-color="#4a8dff"/>
    </linearGradient>
  </defs>
  <g id="Group_322" data-name="Group 322">
    <g id="Group_321" data-name="Group 321">
      <path id="Path_253" data-name="Path 253" class="cls-1" d="M144.041,477.867H120.314a.848.848,0,0,0-.847.847v1.695a.847.847,0,0,0,1.695,0v-.847h22.88a.847.847,0,0,0,0-1.695Z" transform="translate(-107.997 -431.257)"/>
      <path id="Path_254" data-name="Path 254" class="cls-1" d="M187.733,159.532a.848.848,0,0,0,.847.847h3.39a.848.848,0,0,0,.847-.847v-5.084a.848.848,0,0,0-.847-.847h-3.39a.848.848,0,0,0-.847.847v5.084Zm1.695-4.237h1.695v3.39h-1.695Z" transform="translate(-169.434 -138.639)"/>
      <path id="Path_255" data-name="Path 255" class="cls-1" d="M11.016,102.4H.847a.848.848,0,0,0-.847.847V120.2a.847.847,0,1,0,1.695,0v-16.1h9.321a.847.847,0,0,0,0-1.695Z" transform="translate(0 -92.498)"/>
      <path id="Path_256" data-name="Path 256" class="cls-1" d="M409.6,364.332a.848.848,0,0,0,.847.847h3.39a.848.848,0,0,0,.847-.847v-5.084a.848.848,0,0,0-.847-.847h-3.39a.848.848,0,0,0-.847.847Zm1.695-4.237h1.695v3.39h-1.695Z" transform="translate(-369.769 -323.491)"/>
      <path id="Path_257" data-name="Path 257" class="cls-1" d="M4.237,307.2C.048,307.2,0,318.106,0,318.216a4.244,4.244,0,0,0,3.39,4.151v4.323a.847.847,0,0,0,1.695,0v-4.323a4.244,4.244,0,0,0,3.39-4.151C8.474,318.106,8.426,307.2,4.237,307.2Zm0,13.558a2.545,2.545,0,0,1-2.542-2.542c0-4.222,1.134-9.321,2.542-9.321s2.542,5.1,2.542,9.321A2.545,2.545,0,0,1,4.237,320.758Z" transform="translate(0 -277.538)"/>
      <path id="Path_258" data-name="Path 258" class="cls-1" d="M55.437,256h-3.39a.848.848,0,0,0-.847.847v1.695a.847.847,0,0,0,1.695,0v-.847H54.59v4.237a.847.847,0,1,0,1.695,0v-5.084A.848.848,0,0,0,55.437,256Z" transform="translate(-46.116 -231.065)"/>
      <path id="Path_259" data-name="Path 259" class="cls-1" d="M410.447,160.38h3.39a.848.848,0,0,0,.847-.847v-5.084a.848.848,0,0,0-.847-.847h-3.39a.848.848,0,0,0-.847.847v5.084A.848.848,0,0,0,410.447,160.38Zm.847-5.084h1.695v3.39h-1.695Z" transform="translate(-369.769 -138.64)"/>
      <path id="Path_260" data-name="Path 260" class="cls-1" d="M55.437,153.6h-3.39a.848.848,0,0,0-.847.847v5.084a.848.848,0,0,0,.847.847h3.39a.848.848,0,0,0,.847-.847v-5.084A.848.848,0,0,0,55.437,153.6Zm-.847,5.084H52.895v-3.39H54.59v3.39Z" transform="translate(-46.116 -138.639)"/>
      <path id="Path_261" data-name="Path 261" class="cls-1" d="M273.067,159.532a.848.848,0,0,0,.847.847h3.39a.848.848,0,0,0,.847-.847v-5.084a.848.848,0,0,0-.847-.847h-3.39a.848.848,0,0,0-.847.847v5.084Zm1.695-4.237h1.695v3.39h-1.695Z" transform="translate(-246.45 -138.639)"/>
      <path id="Path_262" data-name="Path 262" class="cls-1" d="M403.55,102.4H393.381a.847.847,0,1,0,0,1.695H402.7v34.052a2.421,2.421,0,0,0-1.283-.118,3.384,3.384,0,0,0-5.908,0,2.492,2.492,0,0,0-.436-.038,2.542,2.542,0,0,0,0,5.084h6.779a2.545,2.545,0,0,0,2.542-2.542V103.247A.848.848,0,0,0,403.55,102.4Zm-1.695,38.98h-6.779a.847.847,0,1,1,0-1.695.837.837,0,0,1,.459.138.847.847,0,0,0,1.285-.521,1.688,1.688,0,0,1,3.291,0,.847.847,0,0,0,1.285.521.864.864,0,0,1,1.307.709A.849.849,0,0,1,401.855,141.38Z" transform="translate(-354.397 -93.075)"/>
      <path id="Path_263" data-name="Path 263" class="cls-1" d="M273.914,57.98h3.39a.848.848,0,0,0,.847-.847V52.048a.848.848,0,0,0-.847-.847h-3.39a.848.848,0,0,0-.847.847v5.084A.848.848,0,0,0,273.914,57.98Zm.847-5.084h1.695v3.39h-1.695Z" transform="translate(-246.45 -46.117)"/>
      <path id="Path_264" data-name="Path 264" class="cls-1" d="M273.067,261.932a.848.848,0,0,0,.847.847h3.39a.848.848,0,0,0,.847-.847v-5.084A.848.848,0,0,0,277.3,256h-3.39a.848.848,0,0,0-.847.847v5.084Zm1.695-4.237h1.695v3.39h-1.695Z" transform="translate(-246.45 -231.065)"/>
      <path id="Path_265" data-name="Path 265" class="cls-1" d="M188.581,57.98h3.39a.848.848,0,0,0,.847-.847V52.048a.848.848,0,0,0-.847-.847h-3.39a.848.848,0,0,0-.847.847v5.084A.848.848,0,0,0,188.581,57.98Zm.847-5.084h1.695v3.39h-1.695Z" transform="translate(-169.435 -46.117)"/>
      <path id="Path_266" data-name="Path 266" class="cls-1" d="M247.712,409.942a.847.847,0,1,0,1.2,0A.891.891,0,0,0,247.712,409.942Z" transform="translate(-223.313 -369.865)"/>
      <path id="Path_267" data-name="Path 267" class="cls-1" d="M187.733,261.932a.848.848,0,0,0,.847.847h3.39a.848.848,0,0,0,.847-.847v-5.084a.848.848,0,0,0-.847-.847h-3.39a.848.848,0,0,0-.847.847v5.084Zm1.695-4.237h1.695v3.39h-1.695Z" transform="translate(-169.434 -231.065)"/>
      <path id="Path_268" data-name="Path 268" class="cls-1" d="M170.667,359.247a.848.848,0,0,0,.847.847h2.542v7.627a.847.847,0,0,0,1.695,0v-7.627h6.779v7.627a.847.847,0,0,0,1.695,0v-7.627h2.542a.847.847,0,1,0,0-1.695H171.514A.848.848,0,0,0,170.667,359.247Z" transform="translate(-154.141 -323.653)"/>
      <path id="Path_269" data-name="Path 269" class="cls-1" d="M409.6,261.932a.848.848,0,0,0,.847.847h3.39a.848.848,0,0,0,.847-.847v-5.084a.848.848,0,0,0-.847-.847h-3.39a.848.848,0,0,0-.847.847Zm1.695-4.237h1.695v3.39h-1.695Z" transform="translate(-369.769 -231.065)"/>
      <path id="Path_270" data-name="Path 270" class="cls-1" d="M159.414,0H137.381a.84.84,0,0,0-.847.832V44.084a.848.848,0,0,0,1.695,0V1.663h20.337v42.42a.848.848,0,0,0,1.695,0V.832A.84.84,0,0,0,159.414,0Z" transform="translate(-123.397)"/>
    </g>
  </g>
</svg>
