<svg xmlns="http://www.w3.org/2000/svg" xmlns:xlink="http://www.w3.org/1999/xlink" viewBox="0 0 50 48.637">
  <defs>
    <style>
      .cls-1 {
        fill: url(#linear-gradient);
      }
    </style>
    <linearGradient id="linear-gradient" x1="0.5" x2="0.5" y2="1" gradientUnits="objectBoundingBox">
      <stop offset="0" stop-color="#63c9ff"/>
      <stop offset="1" stop-color="#4a8dff"/>
    </linearGradient>
  </defs>
  <g id="icon_phongtro" transform="translate(0 -0.818)">
    <path id="Path_271" data-name="Path 271" class="cls-1" d="M14,34.556H25.723V26.182H14Zm1.675-1.675V30.369h8.374v2.512Zm8.374-5.024v.837H15.675v-.837Z" transform="translate(-2.351 -4.248)"/>
    <path id="Path_272" data-name="Path 272" class="cls-1" d="M14,40.182V50.23H25.723V40.182Zm5.024,1.675v2.512H15.675V41.857Zm-3.349,4.187h3.349v2.512H15.675ZM20.7,48.556V46.044h3.349v2.512Zm3.349-4.187H20.7V41.857h3.349Z" transform="translate(-2.351 -6.637)"/>
    <path id="Path_273" data-name="Path 273" class="cls-1" d="M32,34.556H43.723V26.182H32Zm1.675-1.675v-.837h8.374v.837Zm8.374-5.024v2.512H33.675V27.857Z" transform="translate(-5.373 -4.248)"/>
    <path id="Path_274" data-name="Path 274" class="cls-1" d="M49.167,40.288a.833.833,0,0,0-.833.833v.833H47.5v-.833a.833.833,0,1,0-1.667,0v.833H45V25.118a3.324,3.324,0,0,0,4.675-3.3,3.347,3.347,0,0,0-1.268-2.361L27.268,2.924,25,.818l-2.214,2.06L1.594,19.458a3.332,3.332,0,0,0-.387,4.892A3.307,3.307,0,0,0,5,25.119V41.956H4.167v-.833a.833.833,0,1,0-1.667,0v.833H1.667v-.833a.833.833,0,1,0-1.667,0v7.5a.833.833,0,0,0,1.667,0v-.833H2.5v.833a.833.833,0,0,0,1.667,0v-.833H5v1.667H45V47.789h.833v.833a.833.833,0,1,0,1.667,0v-.833h.833v.833a.833.833,0,1,0,1.667,0v-7.5A.833.833,0,0,0,49.167,40.288ZM2.427,23.215a1.666,1.666,0,0,1,.195-2.445L23.867,4.146,25,3.091l1.187,1.1,21.192,16.58A1.666,1.666,0,0,1,45.336,23.4L45,23.143h0L25,7.726,5.325,22.893h0l-.659.507A1.658,1.658,0,0,1,2.427,23.215Zm-.76,22.906v-2.5H2.5v2.5Zm2.5,0v-2.5H5v2.5Zm24.167,1.667v-12.5h8.333v12.5Zm15,0h-5V33.621H26.667V47.788h-20V23.962L25,9.83,43.333,23.962ZM45,46.121v-2.5h.833v2.5Zm2.5,0v-2.5h.833v2.5Z"/>
  </g>
</svg>
