<svg xmlns="http://www.w3.org/2000/svg" xmlns:xlink="http://www.w3.org/1999/xlink" viewBox="0 0 50 48.919">
  <defs>
    <style>
      .cls-1 {
        fill: url(#linear-gradient);
      }
    </style>
    <linearGradient id="linear-gradient" x1="0.5" x2="0.5" y2="1" gradientUnits="objectBoundingBox">
      <stop offset="0" stop-color="#63c9ff"/>
      <stop offset="1" stop-color="#4a8dff"/>
    </linearGradient>
  </defs>
  <path id="icon_datduan" class="cls-1" d="M47.387,50.561a.823.823,0,0,1-.582-1.4l.364-.364H9.589l.364.364A.823.823,0,0,1,8.79,50.319L7.041,48.571a.82.82,0,0,1-.241-.592v-.01a.822.822,0,0,1,.36-.681l1.67-1.67a.823.823,0,0,1,1.164,1.164l-.364.364H47.211l-.364-.364a.823.823,0,0,1,1.164-1.164l1.749,1.749a.819.819,0,0,1,.241.592v.01a.822.822,0,0,1-.36.681l-1.67,1.67A.819.819,0,0,1,47.387,50.561Zm-44.8-5.719a.822.822,0,0,1-.681-.361l-1.67-1.67A.823.823,0,1,1,1.4,41.647l.364.364V4.43L1.4,4.795A.823.823,0,0,1,.241,3.631L1.99,1.882a.806.806,0,0,1,.592-.241A.842.842,0,0,1,3.273,2l1.67,1.67A.823.823,0,0,1,3.78,4.836l-.364-.364V42.053l.364-.364a.823.823,0,1,1,1.164,1.164L3.194,44.6a.815.815,0,0,1-.592.241Zm46.585-2.328H9.413a.823.823,0,0,1-.823-.823V2.465a.823.823,0,0,1,.823-.823H33.175A.823.823,0,0,1,34,2.465V18.436H49.177a.823.823,0,0,1,.823.823V41.691A.823.823,0,0,1,49.177,42.514ZM33.962,40.868H48.354V20.081H33.962Zm-15.763,0H32.317V29.846H18.2Zm-7.964,0h6.318V29.846H10.236ZM17.376,28.2H32.317V19.258a.835.835,0,0,1,.035-.24V10.426H10.236V28.2ZM22.1,8.781H32.352V3.288H22.1Zm-11.864,0H20.453V3.288H10.236Z" transform="translate(0 -1.641)"/>
</svg>
