<svg id="icon_datthocu" xmlns="http://www.w3.org/2000/svg" xmlns:xlink="http://www.w3.org/1999/xlink" viewBox="0 0 50 50">
  <defs>
    <style>
      .cls-1 {
        fill: url(#linear-gradient);
      }
    </style>
    <linearGradient id="linear-gradient" x1="0.5" x2="0.5" y2="1" gradientUnits="objectBoundingBox">
      <stop offset="0" stop-color="#63c9ff"/>
      <stop offset="1" stop-color="#4a8dff"/>
    </linearGradient>
  </defs>
  <path id="Path_247" data-name="Path 247" class="cls-1" d="M33.569,19.912H45.5a4.774,4.774,0,0,0,.463-9.525,3.971,3.971,0,0,0-3.073-2.368A5.567,5.567,0,0,0,32.007,9a5.567,5.567,0,0,0,1.563,10.911Zm-.661-9.487a.871.871,0,0,0,.661-.856,3.975,3.975,0,0,1,7.9-.658.8.8,0,0,0,.784.665.907.907,0,0,0,.105-.006,2.379,2.379,0,0,1,2.268,1.8.8.8,0,0,0,.771.6,1.072,1.072,0,0,0,.14-.011,3.182,3.182,0,0,1-.031,6.365H33.569a3.975,3.975,0,0,1-.661-7.9Z" transform="translate(-6.641 -0.818)"/>
  <path id="Path_248" data-name="Path 248" class="cls-1" d="M11.182,25.978h.8a2.39,2.39,0,0,1,2.387-2.387V22A3.984,3.984,0,0,0,10.7,24.436,3.178,3.178,0,0,0,8,27.569H9.591A1.593,1.593,0,0,1,11.182,25.978Z" transform="translate(-1.635 -4.851)"/>
  <path id="Path_249" data-name="Path 249" class="cls-1" d="M40.387,15.978h1.591A3.982,3.982,0,0,0,38,12v1.591A2.39,2.39,0,0,1,40.387,15.978Z" transform="translate(-8.359 -2.64)"/>
  <rect id="Rectangle_36" data-name="Rectangle 36" class="cls-1" width="1.591" height="1.591" transform="translate(15.616 4.774)"/>
  <rect id="Rectangle_37" data-name="Rectangle 37" class="cls-1" width="1.591" height="1.591" transform="translate(18.739 4.774)"/>
  <rect id="Rectangle_38" data-name="Rectangle 38" class="cls-1" width="1.591" height="1.591" transform="translate(9.369)"/>
  <rect id="Rectangle_39" data-name="Rectangle 39" class="cls-1" width="1.591" height="1.591" transform="translate(12.493)"/>
  <rect id="Rectangle_40" data-name="Rectangle 40" class="cls-1" width="1.591" height="1.591" transform="translate(15.616)"/>
  <rect id="Rectangle_41" data-name="Rectangle 41" class="cls-1" width="1.591" height="1.591" transform="translate(1.591 7.956)"/>
  <path id="Path_250" data-name="Path 250" class="cls-1" d="M52.242,7.038A.793.793,0,0,0,52.8,6.8l2.387-2.387L54.067,3.293,52.242,5.117,50.418,3.293,49.293,4.418,51.68,6.8A.793.793,0,0,0,52.242,7.038Z" transform="translate(-10.994 -0.673)"/>
  <path id="Path_251" data-name="Path 251" class="cls-1" d="M58.68,13.8a.8.8,0,0,0,1.125,0l2.387-2.387-1.125-1.125-1.824,1.824-1.824-1.824-1.125,1.125Z" transform="translate(-12.425 -2.263)"/>
  <rect id="Rectangle_42" data-name="Rectangle 42" class="cls-1" width="1.591" height="1.591" transform="translate(0 3.182)"/>
  <rect id="Rectangle_43" data-name="Rectangle 43" class="cls-1" width="1.591" height="1.591" transform="translate(3.182 3.182)"/>
  <rect id="Rectangle_44" data-name="Rectangle 44" class="cls-1" width="1.591" height="1.591" transform="translate(6.365 3.182)"/>
  <path id="Path_252" data-name="Path 252" class="cls-1" d="M50,30.671V29.115a13.527,13.527,0,0,1-4.631-.725,18.2,18.2,0,0,0-3.648-.8c-.516-1.286-1.438-2.365-2.658-2.365-1.2,0-2.116,1.049-2.637,2.312a22.881,22.881,0,0,0-5.912.342,17.847,17.847,0,0,0-5.63,2.027c-.805.447-1.581.948-2.332,1.434a29.76,29.76,0,0,1-2.905,1.728,8.808,8.808,0,0,1-3.787,1.02,9.013,9.013,0,0,1-3.359-.856v-2.57a3.932,3.932,0,0,0,.781-.77,3.908,3.908,0,0,0,7.03-2.332,3.825,3.825,0,0,0-1.252-2.841,3.819,3.819,0,0,0,.47-1.827,4.137,4.137,0,0,0-3.125-3.812V19a3.877,3.877,0,0,0-2.37-3.566,3.908,3.908,0,0,0-7.759,0A3.877,3.877,0,0,0,3.906,19v.078A4.137,4.137,0,0,0,.78,22.891a3.828,3.828,0,0,0,.47,1.827A3.83,3.83,0,0,0,0,27.559,3.908,3.908,0,0,0,7.031,29.89a3.891,3.891,0,0,0,.781.77V31.9a7.239,7.239,0,0,0-3.345.244A12.39,12.39,0,0,0,2.6,32.93a6.277,6.277,0,0,1-2.6.853v1.556a7.526,7.526,0,0,0,3.289-1.011,11.127,11.127,0,0,1,1.626-.692,5.428,5.428,0,0,1,2.9-.14v4.455c-.059.008-.116.01-.175.018-1.014.137-2.031.36-3.015.576A21.681,21.681,0,0,1,0,39.228v1.556a23.2,23.2,0,0,0,4.96-.72c1-.219,1.937-.426,2.887-.554a14.218,14.218,0,0,1,8.53,1.239,35.6,35.6,0,0,1,4.48,2.853,30.556,30.556,0,0,0,5.759,3.471,56.627,56.627,0,0,1-11.224,2.4l-.509.073A111.593,111.593,0,0,1,.781,50.9H0v1.556H.8a113.071,113.071,0,0,0,14.311-1.362l.508-.073c1.509-.217,3.033-.441,4.554-.709a9.495,9.495,0,0,0,5.97,1.995,10.71,10.71,0,0,0,1.416-.094,20.733,20.733,0,0,0,5.658-1.926c2.593-1.171,5.042-2.277,7.695-1.725a12.551,12.551,0,0,1,3.857,1.821l.279.172a10.457,10.457,0,0,0,1.057.583,6.731,6.731,0,0,0,3.117.542H50V50.12h-.807a5.525,5.525,0,0,1-2.427-.4,9.022,9.022,0,0,1-.9-.5l-.277-.17a13.715,13.715,0,0,0-4.361-2.023c-3.156-.657-5.953.609-8.66,1.832a19.258,19.258,0,0,1-5.22,1.8,8.75,8.75,0,0,1-4.967-.785,32.777,32.777,0,0,0,6.753-2.146c.884-.4,1.723-.881,2.535-1.344.857-.488,1.666-.948,2.532-1.335a22.43,22.43,0,0,1,5.723-1.771,13.539,13.539,0,0,1,4.948.093,6.8,6.8,0,0,1,1.546.583,5.444,5.444,0,0,0,2.8.71H50V43.118h-.818a4.451,4.451,0,0,1-2.089-.559,8.309,8.309,0,0,0-1.888-.7,15.139,15.139,0,0,0-5.52-.11,24.02,24.02,0,0,0-6.12,1.888c-.936.418-1.817.919-2.67,1.4-.713.406-1.4.784-2.1,1.125a18.135,18.135,0,0,1-5.559-2.807l.044,0a23.626,23.626,0,0,0,12.437-3.615l.118-.078C40.243,36.775,44.8,33.782,50,33.782V32.226a20.909,20.909,0,0,0-10.156,3.114V32.929a2.8,2.8,0,0,0,2.344-3.036,5.569,5.569,0,0,0-.045-.671,14.969,14.969,0,0,1,2.7.635A15.044,15.044,0,0,0,50,30.671ZM7.031,26.781a.78.78,0,0,0-.781.778,2.344,2.344,0,0,1-4.687,0,2.308,2.308,0,0,1,1.152-2,.776.776,0,0,0,.2-1.172,2.3,2.3,0,0,1-.566-1.5,2.334,2.334,0,0,1,2.3-2.335c.027,0,.1.012.131.012a.782.782,0,0,0,.64-.29.774.774,0,0,0,.146-.685A2.274,2.274,0,0,1,7.235,16.75a.778.778,0,0,0,.587-.779c0-.046,0-.087-.01-.082a2.345,2.345,0,0,1,4.69-.054c0,.029-.012.107-.013.135a.779.779,0,0,0,.588.779A2.329,2.329,0,0,1,14.844,19a2.281,2.281,0,0,1-.088.59.778.778,0,0,0,.786.976.212.212,0,0,0,.084-.01,2.342,2.342,0,0,1,2.344,2.334,2.3,2.3,0,0,1-.566,1.5.776.776,0,0,0,.2,1.172,2.308,2.308,0,0,1,1.152,2,2.344,2.344,0,0,1-4.687,0,.781.781,0,0,0-1.562,0,2.344,2.344,0,0,1-4.687,0A.78.78,0,0,0,7.031,26.781Zm2.344,11.04V31.364a3.674,3.674,0,0,0,1.563,0v6.454Q10.169,37.786,9.375,37.821Zm22.656-.927c-1.08,0-1.562-.48-1.562-1.556,0-1.5.917-3.112,1.563-3.112s1.563,1.61,1.563,3.112C33.594,36.414,33.112,36.894,32.031,36.894Zm2.941,1.476-.118.078A18.264,18.264,0,0,1,32.813,39.6V38.374a2.8,2.8,0,0,0,2.344-3.036c0-1.949-1.189-4.668-3.125-4.668s-3.125,2.719-3.125,4.668a2.8,2.8,0,0,0,2.344,3.036v1.9a21.193,21.193,0,0,1-10.506,1.338,29.839,29.839,0,0,0-3.665-2.258A14.718,14.718,0,0,0,12.5,37.951V34.741a10,10,0,0,0,3.309.6h.066a9.844,9.844,0,0,0,4.467-1.032A30.5,30.5,0,0,0,23.4,32.645c.729-.471,1.482-.958,2.241-1.38a16.3,16.3,0,0,1,5.136-1.853A21.882,21.882,0,0,1,36,29.068a5.635,5.635,0,0,0-.066.825,2.8,2.8,0,0,0,2.344,3.036v3.324C37.142,36.946,36.04,37.669,34.972,38.37Zm4.091-6.921c-1.08,0-1.562-.48-1.562-1.556,0-1.5.917-3.112,1.563-3.112s1.563,1.61,1.563,3.112C40.625,30.969,40.143,31.449,39.063,31.449Z" transform="translate(0 -2.453)"/>
  <rect id="Rectangle_45" data-name="Rectangle 45" class="cls-1" width="1.591" height="1.591" transform="translate(1.591 44.431)"/>
  <rect id="Rectangle_46" data-name="Rectangle 46" class="cls-1" width="1.591" height="1.591" transform="translate(4.774 44.431)"/>
  <rect id="Rectangle_47" data-name="Rectangle 47" class="cls-1" width="1.591" height="1.591" transform="translate(7.956 44.431)"/>
</svg>
