<svg xmlns="http://www.w3.org/2000/svg" xmlns:xlink="http://www.w3.org/1999/xlink" viewBox="0 0 50 50">
  <defs>
    <style>
      .cls-1 {
        fill: url(#linear-gradient);
      }
    </style>
    <linearGradient id="linear-gradient" x1="0.5" x2="0.5" y2="1" gradientUnits="objectBoundingBox">
      <stop offset="0" stop-color="#63c9ff"/>
      <stop offset="1" stop-color="#4a8dff"/>
    </linearGradient>
  </defs>
  <g id="icon_nhamatpho" transform="translate(-0.001 -0.004)">
    <path id="Path_236" data-name="Path 236" class="cls-1" d="M91.3,71.84a3.3,3.3,0,0,0-3.3,3.3v2.473a.824.824,0,0,0,.824.824h4.945a.824.824,0,0,0,.824-.824V75.137A3.3,3.3,0,0,0,91.3,71.84Zm1.648,4.945h-3.3V75.137a1.648,1.648,0,0,1,3.3,0Zm0,0" transform="translate(-78.821 -64.435)"/>
    <path id="Path_237" data-name="Path 237" class="cls-1" d="M331.3,71.84a3.3,3.3,0,0,0-3.3,3.3v2.473a.824.824,0,0,0,.824.824h4.945a.824.824,0,0,0,.824-.824V75.137A3.3,3.3,0,0,0,331.3,71.84Zm1.648,4.945h-3.3V75.137a1.648,1.648,0,1,1,3.3,0Zm0,0" transform="translate(-293.779 -64.435)"/>
    <path id="Path_238" data-name="Path 238" class="cls-1" d="M49.167,48.337h-.833V16.659h.833a.834.834,0,0,0,.658-1.346L38.159.308a.864.864,0,0,0-1.316,0L25.176,15.314a.834.834,0,0,0,.658,1.346h.833v10H23.334v-10h.833a.834.834,0,0,0,.658-1.346L13.16.308a.864.864,0,0,0-1.316,0L.177,15.314a.834.834,0,0,0,.658,1.346h.833V48.337H.835A.834.834,0,0,0,.835,50H49.167a.834.834,0,0,0,0-1.667ZM45,28.33h1.667v5H45ZM37.5,2.178l9.963,12.814H27.538Zm9.166,14.481v10h-5V20.827a.833.833,0,0,0-.833-.834H34.167a.834.834,0,0,0-.833.834v5.835h-5v-10ZM40,33.332H38.334v-5H40Zm-3.333,0H35v-5h1.667Zm-5-5h1.667v5H31.668ZM40,26.663H35v-5h5Zm1.667,1.667h1.667v5H41.667Zm-13.333,0H30v5H28.334Zm-1.667,5H23.334v-5h3.333ZM20,28.33h1.667v5H20ZM12.5,2.178l9.963,12.814H2.538Zm9.166,14.481v10h-5V20.827a.833.833,0,0,0-.833-.834H9.168a.834.834,0,0,0-.833.834v5.835h-5v-10ZM15,33.332H13.335v-5H15Zm-3.333,0H10v-5h1.667Zm-5-5H8.335v5H6.668ZM15,26.663H10v-5h5Zm1.667,1.667h1.667v5H16.668Zm-13.333,0H5v5H3.335Zm0,6.669H21.668V48.337H18.334V37.5a.833.833,0,0,0-.833-.834H7.5a.834.834,0,0,0-.833.834V48.337H3.335Zm5,3.334h3.333v10H8.335Zm5,10v-10h3.333v10ZM23.334,35h3.333V48.337H23.334ZM36.667,48.337H33.334v-10h3.333Zm1.667,0v-10h3.333v10Zm5,0V37.5a.833.833,0,0,0-.833-.834h-10a.834.834,0,0,0-.833.834V48.337H28.334V35H46.667V48.337Zm0,0" transform="translate(0)"/>
  </g>
</svg>
