<svg xmlns="http://www.w3.org/2000/svg" xmlns:xlink="http://www.w3.org/1999/xlink" viewBox="0 0 31.473 54.777">
  <defs>
    <style>
      .cls-1 {
        fill: url(#linear-gradient);
      }
    </style>
    <linearGradient id="linear-gradient" x1="0.5" x2="0.5" y2="1" gradientUnits="objectBoundingBox">
      <stop offset="0" stop-color="#63c9ff"/>
      <stop offset="1" stop-color="#4a8dff"/>
    </linearGradient>
  </defs>
  <g id="icon_chungcu" transform="translate(-97)">
    <path id="Path_99" data-name="Path 99" class="cls-1" d="M157.863,53.952h5.383a.721.721,0,0,0,.721-.721V44.721a.721.721,0,0,0-.721-.721h-5.383a.721.721,0,0,0-.721.721v8.511A.721.721,0,0,0,157.863,53.952Zm.721-6.229h1.25v4.787h-1.25Zm2.692,4.787V47.724h1.25v4.787Zm1.25-7.069v.841h-3.942v-.841Z" transform="translate(-52.917 -38.715)"/>
    <path id="Path_100" data-name="Path 100" class="cls-1" d="M242.768,53.952h5.383a.721.721,0,0,0,.721-.721V44.721a.721.721,0,0,0-.721-.721h-5.383a.721.721,0,0,0-.721.721v8.511A.721.721,0,0,0,242.768,53.952Zm.721-6.229h1.25v4.787h-1.25Zm2.692,4.787V47.724h1.25v4.787Zm1.25-7.069v.841h-3.942v-.841Z" transform="translate(-127.623 -38.715)"/>
    <path id="Path_101" data-name="Path 101" class="cls-1" d="M157.863,150.335h5.383a.721.721,0,0,0,.721-.721V141.1a.721.721,0,0,0-.721-.721h-5.383a.721.721,0,0,0-.721.721v8.511A.721.721,0,0,0,157.863,150.335Zm.721-6.194h1.25v4.753h-1.25Zm2.692,4.753v-4.753h1.25v4.753Zm1.25-7.069v.875h-3.942v-.875Z" transform="translate(-52.917 -123.52)"/>
    <path id="Path_102" data-name="Path 102" class="cls-1" d="M242.768,150.335h5.383a.721.721,0,0,0,.721-.721V141.1a.721.721,0,0,0-.721-.721h-5.383a.721.721,0,0,0-.721.721v8.511A.721.721,0,0,0,242.768,150.335Zm.721-6.194h1.25v4.753h-1.25Zm2.692,4.753v-4.753h1.25v4.753Zm1.25-7.069v.875h-3.942v-.875Z" transform="translate(-127.623 -123.52)"/>
    <path id="Path_103" data-name="Path 103" class="cls-1" d="M157.863,246.718h5.383a.721.721,0,0,0,.721-.721v-8.511a.721.721,0,0,0-.721-.721h-5.383a.721.721,0,0,0-.721.721V246A.721.721,0,0,0,157.863,246.718Zm.721-6.16h1.25v4.719h-1.25Zm2.692,4.719v-4.719h1.25v4.719Zm1.25-7.069v.909h-3.942v-.909Z" transform="translate(-52.917 -208.325)"/>
    <path id="Path_104" data-name="Path 104" class="cls-1" d="M242.768,246.718h5.383a.721.721,0,0,0,.721-.721v-8.511a.721.721,0,0,0-.721-.721h-5.383a.721.721,0,0,0-.721.721V246A.721.721,0,0,0,242.768,246.718Zm.721-6.16h1.25v4.719h-1.25Zm2.692,4.719v-4.719h1.25v4.719Zm1.25-7.069v.909h-3.942v-.909Z" transform="translate(-127.623 -208.325)"/>
    <path id="Path_105" data-name="Path 105" class="cls-1" d="M157.863,343.1h5.383a.721.721,0,0,0,.721-.721V333.87a.721.721,0,0,0-.721-.721h-5.383a.721.721,0,0,0-.721.721v8.511A.721.721,0,0,0,157.863,343.1Zm.721-6.126h1.25v4.685h-1.25Zm2.692,4.685v-4.685h1.25v4.685Zm1.25-7.069v.943h-3.942v-.943Z" transform="translate(-52.917 -293.13)"/>
    <path id="Path_106" data-name="Path 106" class="cls-1" d="M127.752,0H97.721A.721.721,0,0,0,97,.721v2.4a.721.721,0,0,0,.721.721h2.112V54.056a.721.721,0,0,0,.721.721h24.365a.721.721,0,0,0,.721-.721V3.844h2.112a.721.721,0,0,0,.721-.721V.721A.721.721,0,0,0,127.752,0Zm-7.945,44.856a.72.72,0,0,0-1.184.551v1.321a.72.72,0,0,0,1.184.551v3.773h-3.942V41.461h3.942Zm-3.942,7.639h3.942v.841h-3.942Zm8.333.841h-2.95V41.461h.312a.721.721,0,0,0,0-1.441h-7.448a.721.721,0,1,0,0,1.441h.312V53.335H101.275V3.844H124.2V53.335ZM127.031,2.4H98.441V1.441h28.59Z"/>
  </g>
</svg>
