<svg xmlns="http://www.w3.org/2000/svg" xmlns:xlink="http://www.w3.org/1999/xlink" viewBox="0 0 49.984 49.984">
  <defs>
    <style>
      .cls-1 {
        fill: url(#linear-gradient);
      }
    </style>
    <linearGradient id="linear-gradient" x1="0.5" x2="0.5" y2="1" gradientUnits="objectBoundingBox">
      <stop offset="0" stop-color="#63c9ff"/>
      <stop offset="1" stop-color="#4a8dff"/>
    </linearGradient>
  </defs>
  <g id="icon_datnongnghiep" transform="translate(0 0)">
    <path id="Path_239" data-name="Path 239" class="cls-1" d="M348.631,324.345a3.557,3.557,0,1,1,3.557-3.558A3.561,3.561,0,0,1,348.631,324.345Zm0-5.162a1.6,1.6,0,1,0,1.6,1.605A1.607,1.607,0,0,0,348.631,319.183Zm0,0" transform="translate(-311.386 -286.261)"/>
    <path id="Path_240" data-name="Path 240" class="cls-1" d="M73.74,285.4a4.725,4.725,0,1,1,4.725-4.725A4.73,4.73,0,0,1,73.74,285.4Zm0-7.5a2.772,2.772,0,1,0,2.772,2.772A2.775,2.775,0,0,0,73.74,277.9Zm0,0" transform="translate(-62.278 -249.009)"/>
    <path id="Path_241" data-name="Path 241" class="cls-1" d="M325.293,10.854H314.306A3.683,3.683,0,0,1,311.631,9.7a3.669,3.669,0,0,1,2.449-6.171,3.77,3.77,0,0,1,.525,0,3.119,3.119,0,0,1,2.164-.853,4.557,4.557,0,0,1,8.6.9c.057,0,.114,0,.17.007a3.645,3.645,0,0,1,3.381,3.378,3.606,3.606,0,0,1-.971,2.734A3.652,3.652,0,0,1,325.293,10.854ZM314.306,5.469q-.054,0-.108,0a1.735,1.735,0,0,0-1.6,1.6,1.716,1.716,0,0,0,1.712,1.83h10.987a1.685,1.685,0,0,0,.117-3.365,1.7,1.7,0,0,0-.426.025.993.993,0,0,1-.115.014,1.292,1.292,0,0,1-.9-.254,1.17,1.17,0,0,1-.444-.808c0-.01,0-.019,0-.029s0-.031,0-.046a2.6,2.6,0,0,0-5.088-.648,1.248,1.248,0,0,1-1.448.862,1.169,1.169,0,0,0-1.142.408,1.256,1.256,0,0,1-1.21.44A1.732,1.732,0,0,0,314.306,5.469ZM311.62,7.008h0ZM324.5,4.4h0Zm0,0" transform="translate(-280.312)"/>
    <path id="Path_242" data-name="Path 242" class="cls-1" d="M384.586,246.51a.963.963,0,0,1-.191-.019.988.988,0,0,1-.35-.145.965.965,0,0,1-.148-.121.978.978,0,0,1-.267-.882,1.027,1.027,0,0,1,.056-.183,1,1,0,0,1,.09-.168,1.009,1.009,0,0,1,.122-.149.987.987,0,0,1,.148-.121.969.969,0,0,1,.35-.145.96.96,0,0,1,.382,0,.98.98,0,0,1,.183.055.987.987,0,0,1,.317.211.957.957,0,0,1,.121.149.98.98,0,0,1,.145.35.973.973,0,0,1-.056.564,1.035,1.035,0,0,1-.09.169,1.007,1.007,0,0,1-.121.149.946.946,0,0,1-.148.121.967.967,0,0,1-.169.09.983.983,0,0,1-.183.056A.966.966,0,0,1,384.586,246.51Zm0,0" transform="translate(-346.159 -220.682)"/>
    <path id="Path_243" data-name="Path 243" class="cls-1" d="M49.008,76.865H44.915a7.854,7.854,0,0,0-1.384-3V66.417a2.692,2.692,0,0,0-2.448-2.692l-3.757-.365V56.994a.976.976,0,0,0-.976-.976h-3.3a.976.976,0,0,0-.976.976v5.857l-2.823-.274-2.21-9.945a4.922,4.922,0,0,0-4.777-3.839H7.429a.976.976,0,0,0-.976.976V66.216A10.728,10.728,0,0,0,.806,76.88.977.977,0,0,0,0,77.842v15.2a.976.976,0,0,0,.976.976H49.008a.976.976,0,0,0,.976-.976v-15.2A.976.976,0,0,0,49.008,76.865ZM34.024,57.97h1.35v5.17L34.024,63ZM48.032,84.463H42.424A7.844,7.844,0,0,0,45.1,78.818h2.932ZM21.638,79.076l7.786.255a7.848,7.848,0,0,0,2.642,5.133H17.625A10.769,10.769,0,0,0,21.638,79.076Zm9.7-.521c0-.046,0-.092,0-.138h0a.056.056,0,0,1,0-.008,5.769,5.769,0,0,1,.435-2.067,5.881,5.881,0,0,1,5.467-3.691,5.907,5.907,0,1,1-5.9,5.905Zm-6.206-25.5,2.059,9.264-8.869-.807V50.745h3.94A2.957,2.957,0,0,1,25.133,53.054ZM8.405,50.745h7.964V62.4c0,.011,0,.023,0,.035s0,.008,0,.013,0,.029,0,.043,0,0,0,0,0,.01,0,.015,0,.005,0,.008l0,.015a.047.047,0,0,0,0,.007l0,.017s0,0,0,.006l0,.016v.007s0,.009,0,.013l0,.009s0,.008,0,.013a.084.084,0,0,0,0,.01l0,.015,0,.007,0,.019a.007.007,0,0,1,0,0l.006.019a.007.007,0,0,1,0,0l.006.017,0,0,.006.017,0,0,.006.016,0,.005.005.014,0,.007.006.015,0,.005.006.014,0,.006.007.013,0,.006.007.014,0,.006.007.014,0,.006.008.013,0,.007.007.012,0,.007.007.011,0,.007.007.011.005.008.008.011,0,.006.008.011,0,.007.007.01.006.008.007.009.006.008.008.01.006.007.008.009.007.008.008.008.007.008.008.008.008.008.008.008.008.008.008.008.008.007.008.007.008.008.008.007.009.008.008.006.009.007.008.006.009.007.008.006.01.007.008.006.01.007.009.006.01.007.009.006.01.006.009.006.01.006.009.005.011.006.01.006.009,0,.011.006.009,0,.011.005.01,0,.011.005.008,0,.013.005.008,0,.012,0,.009,0,.012,0,.009,0,.014,0,.007,0,.014,0,.008,0,.013,0,.009,0,.014,0,.008,0,.014,0,.008,0,.015,0,.007,0,.016,0,.006,0,.016,0h.007l.016,0h.007l.016,0h.007l.016,0h.012L40.9,65.669a.749.749,0,0,1,.681.749v5.6a7.823,7.823,0,0,0-11.612,3.584,7.726,7.726,0,0,0-.493,1.774l-7.387-.241a10.719,10.719,0,0,0-3.156-9.129l15.527,1.476c.031,0,.063,0,.093,0a.976.976,0,0,0,.091-1.948L15.556,65.726a.986.986,0,0,0-.15,0,10.734,10.734,0,0,0-7-.308V50.745Zm3.057,16.179a8.769,8.769,0,1,1-8.769,8.769A8.779,8.779,0,0,1,11.462,66.925ZM5.3,84.463H1.953v-3.82A10.8,10.8,0,0,0,5.3,84.463Zm42.732,7.6H1.953V86.416H48.032Zm0,0" transform="translate(0 -44.03)"/>
    <path id="Path_244" data-name="Path 244" class="cls-1" d="M440.126,455.038a.987.987,0,0,1-.374-.075,1.007,1.007,0,0,1-.169-.09.9.9,0,0,1-.148-.122.978.978,0,0,1-.122-.147,1.04,1.04,0,0,1-.09-.169.981.981,0,0,1-.056-.183.926.926,0,0,1,0-.381.971.971,0,0,1,.056-.183,1.042,1.042,0,0,1,.09-.169.971.971,0,0,1,.27-.27,1.035,1.035,0,0,1,.169-.09.98.98,0,0,1,.183-.056.959.959,0,0,1,.382,0,.979.979,0,0,1,.183.056,1.055,1.055,0,0,1,.169.09,1.007,1.007,0,0,1,.148.122.972.972,0,0,1,.121.148,1.042,1.042,0,0,1,.09.169.988.988,0,0,1,.075.374.978.978,0,0,1-.976.976Zm0,0" transform="translate(-396.276 -408.852)"/>
    <path id="Path_245" data-name="Path 245" class="cls-1" d="M223.032,455.038H203.859a.976.976,0,0,1,0-1.953h19.173a.976.976,0,0,1,0,1.953Zm0,0" transform="translate(-183.076 -408.853)"/>
    <path id="Path_246" data-name="Path 246" class="cls-1" d="M95.533,455.038h-5.76a.976.976,0,1,1,0-1.953h5.76a.976.976,0,1,1,0,1.953Zm0,0" transform="translate(-80.128 -408.853)"/>
  </g>
</svg>
